<?xml version="1.0" encoding="utf-8"?>
<!-- Generator: Adobe Illustrator 25.4.1, SVG Export Plug-In . SVG Version: 6.00 Build 0)  -->
<svg version="1.1" id="Layer_1" xmlns:xodm="http://www.corel.com/coreldraw/odm/2003"
	 xmlns="http://www.w3.org/2000/svg" xmlns:xlink="http://www.w3.org/1999/xlink" x="0px" y="0px" viewBox="0 0 50 50"
	 style="enable-background:new 0 0 50 50;" xml:space="preserve">
<style type="text/css">
	.st0{fill:#020202;stroke:#000000;stroke-width:1.5;stroke-miterlimit:10;}
	.st1{fill:#0075FF;stroke:#0075FF;stroke-width:1.5;stroke-miterlimit:10;}
	.st2{fill:#1475FF;}
	.st3{fill:#1475FF;fill-opacity:0;}
	.st4{clip-path:url(#SVGID_00000096049835041590762730000010909256858050654112_);}
	.st5{fill:none;}
	.st6{clip-path:url(#SVGID_00000010992204022445623700000010286430676133113000_);}
	.st7{fill:#66495C;stroke:#000000;stroke-width:1.5;stroke-miterlimit:10;}
</style>
<g id="Layer_x0020_1">
	<g id="_811414592">
		<path class="st0" d="M73.1,29.8L71,27.7l1.3-1.3l-0.7-0.6L70,27.4c-0.1,0.1-0.1,0.1-0.1,0.2c-2.4,2.4-7.6,6.3-10.6,8.3
			c-1.4,1-1.9,3.2-1.6,4.7c0,0.1,0.1,0.2,0.1,0.3l1.1,1.1l1.1,1.1c0.1,0.1,0.2,0.1,0.3,0.1c0.4,0.1,0.6,0.1,0.9,0.1
			c1.4,0,3.1-0.5,3.8-1.7c1.7-2.8,5.7-8,8.2-10.5c0.1,0,0.2-0.1,0.2-0.1l1.5-1.5l-0.6-0.6L73.1,29.8L73.1,29.8z M64.1,41
			c-0.5,0.8-1.9,1.4-3.6,1.3l-0.9-0.9l-0.9-0.9c-0.2-1.4,0.2-3,1.3-3.7c2.9-1.9,8-5.8,10.5-8.2l2,2C70,32.9,66,37.9,64.1,41z"/>
		<path class="st1" d="M74.8,29.6c0,0,0.1,0.1,0.2,0.1s0.1,0,0.2,0l0,0l5.7-0.2c0.1,0,0.2-0.1,0.3-0.2l11.5-11.5
			c0.1-0.1,0.2-0.2,0.2-0.4c0-0.1-0.1-0.3-0.2-0.4L83.5,8c-0.1-0.1-0.2-0.1-0.4-0.1c-0.1,0-0.3,0-0.4,0.1L71.3,19.6
			c-0.1,0.1-0.2,0.2-0.2,0.3L71,25.6c0,0.1,0,0.1,0,0.2s0.1,0.1,0.1,0.2C71.1,25.9,74.8,29.6,74.8,29.6z M71.9,25.5l0.1-4.5l7.8,7.8
			l-4.5,0.1C75.3,28.8,71.9,25.5,71.9,25.5z M72.3,19.9l2.6-2.6l8.6,8.6l-2.6,2.6L72.3,19.9z M83.1,9l1.8,1.8l-4.7,4.7
			c0,0-0.1,0.1-0.1,0.2c0,0.1,0,0.1,0,0.2s0,0.1,0,0.2c0,0.1,0.1,0.1,0.1,0.2c0,0,0.1,0.1,0.2,0.1s0.1,0,0.2,0c0.1,0,0.1,0,0.2,0
			s0.1-0.1,0.2-0.1l4.7-4.7l1.5,1.5l-3.4,3.4c0,0-0.1,0.1-0.1,0.2s0,0.1,0,0.2s0,0.1,0,0.2s0.1,0.1,0.1,0.2c0,0,0.1,0.1,0.2,0.1
			s0.1,0,0.2,0s0.1,0,0.2,0s0.1-0.1,0.2-0.1l3.4-3.4l1.5,1.5L84.8,20c-0.1,0.1-0.1,0.2-0.1,0.4c0,0.1,0,0.3,0.2,0.4
			c0.1,0.1,0.2,0.2,0.4,0.2c0.1,0,0.3,0,0.4-0.1l4.7-4.7l1.8,1.8l-7.9,7.2l-8.7-8.6L83.1,9z"/>
	</g>
</g>
<g id="check" transform="translate(407 10)">
	<ellipse id="Ellipse_5" class="st2" cx="-533.1" cy="48.8" rx="27.5" ry="27.5"/>
</g>
<g>
	<g id="light_services_small-2" transform="translate(42 397)">
		<g id="icon-3" transform="translate(-33 -428)">
			<g id="qr_scan" transform="translate(-574 328)">
				<rect id="container-2" x="521.4" y="-289.5" class="st3" width="34.8" height="34.8"/>
				<path id="icon-4" class="st2" d="M546.5-260.3h-15.3c-0.5,0-0.9-0.1-1.4-0.2c-1.2-0.4-2.1-1.4-2.5-2.5c-0.2-0.4-0.2-0.9-0.2-1.4
					v-4.2h2.8v4.2c0,0.8,0.6,1.4,1.4,1.4h15.3c0.8,0,1.4-0.6,1.4-1.4v-4.2h2.8v4.2c0,0.5-0.1,0.9-0.2,1.4c-0.4,1.2-1.4,2.1-2.5,2.5
					C547.5-260.4,547-260.3,546.5-260.3L546.5-260.3z M524.9-271.4v-2.8h2.1v-5.6c0-0.5,0.1-0.9,0.2-1.4c0.4-1.2,1.4-2.1,2.5-2.5
					c0.4-0.2,0.9-0.2,1.4-0.2h15.3c0.5,0,0.9,0.1,1.4,0.2c1.2,0.4,2.1,1.4,2.5,2.5c0.2,0.4,0.2,0.9,0.2,1.4v5.6h2.1v2.8L524.9-271.4
					z M529.8-279.8v5.6h18.1v-5.6c0-0.8-0.6-1.4-1.4-1.4h-15.3C530.4-281.2,529.8-280.6,529.8-279.8z"/>
			</g>
		</g>
	</g>
	<path d="M-16.7,42.1v-2.8h4.2c0.8,0,1.4-0.6,1.4-1.4v-4.2h2.8V38c0,2.3-1.9,4.2-4.2,4.2l0,0H-16.7z"/>
	<path d="M-39,42.1c-2.3,0-4.2-1.9-4.2-4.2c0,0,0,0,0,0v-4.2h2.8V38c0,0.8,0.6,1.4,1.4,1.4h4.2v2.8H-39z"/>
	<path d="M-11.1,15.7v-4.2c0-0.8-0.6-1.4-1.4-1.4h-4.2V7.3h4.2c2.3,0,4.2,1.9,4.2,4.2v4.2H-11.1z"/>
	<path d="M-43.2,15.7v-4.2c0-2.3,1.9-4.2,4.2-4.2c0,0,0,0,0,0h4.2v2.8H-39c-0.8,0-1.4,0.6-1.4,1.4v4.2H-43.2z"/>
</g>
<g id="Layer_x0020_1_00000103972802155269951980000014284646392011549339_">
	<g id="_1027986768">
		<g>
			<defs>
				<rect id="SVGID_1_" x="6.9" y="7" width="34.4" height="34.4"/>
			</defs>
			<clipPath id="SVGID_00000072262605554527435000000012818832146380165268_">
				<use xlink:href="#SVGID_1_"  style="overflow:visible;"/>
			</clipPath>
			<g style="clip-path:url(#SVGID_00000072262605554527435000000012818832146380165268_);">
				<polygon class="st5" points="6.9,7 41.3,7 41.3,41.4 6.9,41.4 				"/>
			</g>
		</g>
		<g>
			<defs>
				<rect id="SVGID_00000072962315298239949000000003018952671153651335_" x="6.9" y="7" width="34.4" height="34.4"/>
			</defs>
			<clipPath id="SVGID_00000047755759934923225520000009590069019468954267_">
				<use xlink:href="#SVGID_00000072962315298239949000000003018952671153651335_"  style="overflow:visible;"/>
			</clipPath>
			<g style="clip-path:url(#SVGID_00000047755759934923225520000009590069019468954267_);">
				<g>
					<path id="_x31_" class="st1" d="M20.5,40.4c-1.8,0-3.3-1.5-3.3-3.3c0-1.8,1.5-3.3,3.3-3.3c1.8,0,3.3,1.5,3.3,3.3
						C23.7,39,22.3,40.4,20.5,40.4z M20.5,35.1c-1.2,0-2.1,0.9-2.1,2.1c0,1.2,0.9,2.1,2.1,2.1c1.2,0,2.1-0.9,2.1-2.1
						C22.6,36,21.6,35.1,20.5,35.1z"/>
					<path class="st1" d="M32.6,40.4c-1.8,0-3.3-1.5-3.3-3.3c0-1.8,1.5-3.3,3.3-3.3c1.8,0,3.3,1.5,3.3,3.3
						C35.9,39,34.4,40.4,32.6,40.4z M32.6,35.1c-1.2,0-2.1,0.9-2.1,2.1c0,1.2,0.9,2.1,2.1,2.1c1.2,0,2.1-0.9,2.1-2.1
						C34.7,36,33.7,35.1,32.6,35.1z"/>
					<path class="st7" d="M7.5,9.1H11c1.2,0,2.2,0.8,2.3,2l2.8,17.7c0.3,1.7,1.7,3,3.5,3H37c0.3,0,0.6-0.3,0.6-0.6
						c0-0.3-0.3-0.6-0.6-0.6H19.7c-1.2,0-2.2-0.8-2.3-2l-0.5-3h17.8c1.5,0,2.8-1,3.3-2.4l3.3-9.5c0.1-0.2,0-0.4-0.1-0.5
						c-0.1-0.2-0.3-0.2-0.5-0.2H14.9l-0.3-2.1c-0.3-1.7-1.7-3-3.5-3H7.5c-0.3,0-0.6,0.3-0.6,0.6C6.9,8.8,7.2,9.1,7.5,9.1z
						 M39.9,14.1l-3,8.7c-0.3,1-1.2,1.6-2.2,1.6H16.7L15,14.1H39.9z"/>
				</g>
			</g>
		</g>
		<polygon class="st5" points="6.9,41.4 41.3,41.4 41.3,7 6.9,7 		"/>
	</g>
</g>
</svg>
