<svg xmlns="http://www.w3.org/2000/svg" xmlns:xlink="http://www.w3.org/1999/xlink" viewBox="0 0 81.4 81.4"><defs><style>.cls-1,.cls-10,.cls-2{fill:none;}.cls-1{clip-rule:evenodd;}.cls-3{fill:#0f4ace;}.cls-4{clip-path:url(#clip-path);}.cls-5{isolation:isolate;}.cls-6{clip-path:url(#clip-path-2);}.cls-7{fill:#061c44;opacity:0.4;}.cls-8{fill:#777;}.cls-9{fill:#fff;}.cls-10{stroke:#e2e2e2;stroke-miterlimit:10;}</style><clipPath id="clip-path"><path class="cls-1" d="M40.7,7.33A33.37,33.37,0,0,0,9.87,53.47a33.37,33.37,0,0,0,43.6,18.06,33.37,33.37,0,0,0,18.06-43.6A33.37,33.37,0,0,0,40.7,7.33Z"/></clipPath><clipPath id="clip-path-2"><rect class="cls-2" x="6.23" y="6.24" width="69.67" height="69.67"/></clipPath></defs><g id="Layer_2" data-name="Layer 2"><g id="Layer_1-2" data-name="Layer 1"><circle class="cls-3" cx="40.7" cy="40.7" r="33.37" transform="translate(-3.81 4.21) rotate(-5.66)"/><g class="cls-4"><g class="cls-5"><g class="cls-6"><polygon class="cls-7" points="27.96 60.58 40.73 75.96 74.07 74.07 74.07 58.28 60.08 43.06 53.47 43.68 43.46 25.98 38.35 26.45 38.2 26.62 27.96 60.58"/></g></g></g><path class="cls-8" d="M49.54,58.89a3.05,3.05,0,0,1-3,3.1H31.93a3.05,3.05,0,0,1-3-3.1V28a3.05,3.05,0,0,1,3-3.11H46.57a3.05,3.05,0,0,1,3,3.11Z"/><path class="cls-9" d="M41.67,58.9A2.42,2.42,0,1,0,41,60.61,2.35,2.35,0,0,0,41.67,58.9ZM48,54.06V32.77a.94.94,0,0,0-.29-.68.93.93,0,0,0-.68-.28H31.51a.93.93,0,0,0-.68.28.94.94,0,0,0-.29.68V54.06a1,1,0,0,0,1,1H47a1,1,0,0,0,1-1ZM42.15,28.42a.42.42,0,0,0-.48-.48H36.83a.48.48,0,0,0,0,1h4.84A.42.42,0,0,0,42.15,28.42Zm8.71-.48v31A3.93,3.93,0,0,1,47,62.77H31.51a3.93,3.93,0,0,1-3.87-3.87v-31a3.93,3.93,0,0,1,3.87-3.88H47a3.93,3.93,0,0,1,3.87,3.88Z"/><path class="cls-9" d="M36.67,43.65a4.6,4.6,0,0,1,.75-7.94l.12-.39a4.91,4.91,0,0,0-1,8.63Z"/><path class="cls-9" d="M43.12,38.17a4.65,4.65,0,0,1,.32,1.72,4.44,4.44,0,0,1-4.35,4.52,4.07,4.07,0,0,1-.71-.07l-.22.3a4.7,4.7,0,0,0,5.61-4.75,5,5,0,0,0-.32-1.74Z"/><path class="cls-9" d="M44.05,35.72l-1.25,1.7H40.25l-.37,1.25h2L37,45l1.26-4.45H37.09l1-4.42a1,1,0,0,1,1-.77h4.8a.22.22,0,0,1,.23.22A.24.24,0,0,1,44.05,35.72Z"/><circle class="cls-9" cx="51.94" cy="44.03" r="8.71"/><path d="M50.06,39.16h3.58v3.58H56l-4.18,4.18-4.18-4.18h2.39Zm-2.39,9H56v1.2H47.67Z"/><circle class="cls-10" cx="40.7" cy="40.7" r="40.2"/></g></g></svg>