<?xml version="1.0" encoding="utf-8"?>
<!-- Generator: Adobe Illustrator 25.2.1, SVG Export Plug-In . SVG Version: 6.00 Build 0)  -->
<svg version="1.1" id="Layer_1" xmlns="http://www.w3.org/2000/svg" xmlns:xlink="http://www.w3.org/1999/xlink" x="0px" y="0px"
	 viewBox="0 0 24 24" style="enable-background:new 0 0 24 24;" xml:space="preserve">
<style type="text/css">
	.st0{fill:#0075FF;}
	.st1{display:none;fill:#FFFFFF;}
	.st2{fill:#FFFFFF;}
	.st3{fill:#FFDC3D;}
</style>
<path class="st0" d="M12,24L12,24C5.4,24,0,18.6,0,12l0,0C0,5.4,5.4,0,12,0l0,0c6.6,0,12,5.4,12,12l0,0C24,18.6,18.6,24,12,24z"/>
<rect x="4" y="4.1" class="st1" width="15.7" height="15.7"/>
<path class="st2" d="M5.4,18.8h2.9v-2.8L9,15l2.2,3.8h3.2l-3.6-5.5l3.5-4.1H11L8.5,12l-0.4,0.5V5.1H5.4V18.8z"/>
<path class="st2" d="M15.3,18.8h2.9V9.1h-2.9V18.8z"/>
<circle class="st3" cx="16.8" cy="6.5" r="1.3"/>
</svg>
