<svg xmlns="http://www.w3.org/2000/svg" xmlns:xlink="http://www.w3.org/1999/xlink" viewBox="0 0 81.4 81.4"><defs><style>.cls-1,.cls-2,.cls-33{fill:none;}.cls-1{clip-rule:evenodd;}.cls-16,.cls-3{fill:#fff;}.cls-4{clip-path:url(#clip-path);}.cls-5{isolation:isolate;}.cls-6{clip-path:url(#clip-path-2);}.cls-7{fill:#9bb7c8;opacity:0.73;}.cls-8{fill:#ffecab;}.cls-9{fill:#fff6d9;}.cls-10{fill:#f0d792;}.cls-11{fill:#fec700;}.cls-12{clip-path:url(#clip-path-3);}.cls-13{clip-path:url(#clip-path-4);}.cls-14{clip-path:url(#clip-path-5);}.cls-15{fill:#ea8000;opacity:0.36;}.cls-16,.cls-32{font-size:15.48px;font-family:Helvetica-Bold, Helvetica;font-weight:700;}.cls-17{fill:#78ba20;}.cls-18{fill:#5c990b;}.cls-19{fill:#0f4ace;}.cls-20{clip-path:url(#clip-path-7);}.cls-21{clip-path:url(#clip-path-8);}.cls-22{fill:#061c44;opacity:0.4;}.cls-23{fill:#a5a5a5;}.cls-24{fill:#89bc49;}.cls-25{fill:#777;}.cls-26{clip-path:url(#clip-path-9);}.cls-27{clip-path:url(#clip-path-10);}.cls-28{clip-path:url(#clip-path-11);}.cls-29{clip-path:url(#clip-path-12);}.cls-30{fill:#9d9e9d;}.cls-31,.cls-32{fill:#232323;}.cls-33{stroke:#e2e2e2;stroke-miterlimit:10;}</style><clipPath id="clip-path"><path class="cls-1" d="M39.28,8A32.7,32.7,0,0,0,9.07,53.21a32.69,32.69,0,0,0,42.72,17.7A32.71,32.71,0,0,0,72,40.7,32.71,32.71,0,0,0,39.28,8Z"/></clipPath><clipPath id="clip-path-2"><rect class="cls-2" x="6.13" y="6.24" width="67.74" height="67.74"/></clipPath><clipPath id="clip-path-3"><path class="cls-1" d="M39.18,36.41a10,10,0,0,0-10,10,10,10,0,0,0,10,10,10,10,0,0,0,10-10,10,10,0,0,0-10-10Z"/></clipPath><clipPath id="clip-path-4"><rect class="cls-2" x="27.42" y="35.27" width="23.22" height="21.29"/></clipPath><clipPath id="clip-path-5"><path class="cls-1" d="M39.77,36.63A10.72,10.72,0,0,0,29,47.36,10.72,10.72,0,0,0,39.77,58.09,10.74,10.74,0,0,0,50.51,47.36,10.74,10.74,0,0,0,39.77,36.63Z"/></clipPath><clipPath id="clip-path-7"><path class="cls-1" d="M40.7,6.17a34.53,34.53,0,0,0-24.42,59A34.54,34.54,0,1,0,53.92,8.79,34.3,34.3,0,0,0,40.7,6.17Z"/></clipPath><clipPath id="clip-path-8"><rect class="cls-2" x="6.13" y="4.31" width="69.67" height="71.61"/></clipPath><clipPath id="clip-path-9"><path class="cls-1" d="M17.55,53.27H64a2.24,2.24,0,0,0,2.21-2.16V30.23a2.16,2.16,0,0,0-2.15-2.16H17.55a2.16,2.16,0,0,0-2.16,2.16V51.11A2.16,2.16,0,0,0,17.55,53.27Z"/></clipPath><clipPath id="clip-path-10"><rect class="cls-2" x="13.87" y="27.53" width="54.19" height="27.09"/></clipPath><clipPath id="clip-path-11"><path class="cls-1" d="M40.54,31.69a9,9,0,0,0-9,9,9,9,0,0,0,9,9,9,9,0,0,0,9-9,9,9,0,0,0-9-9Z"/></clipPath><clipPath id="clip-path-12"><rect class="cls-2" x="31.29" y="31.4" width="19.35" height="19.35"/></clipPath></defs><g id="Layer_2" data-name="Layer 2"><g id="Layer_1-2" data-name="Layer 1"><circle class="cls-3" cx="39.28" cy="40.7" r="32.7"/><g class="cls-4"><g class="cls-5"><g class="cls-6"><polygon class="cls-7" points="20.99 60.37 34.02 73.4 71.98 73.4 71.98 41.83 46.23 16.18 37.64 25.52 20.99 60.37"/></g></g></g><path class="cls-8" d="M57.78,58.74,56.09,54.5A10.51,10.51,0,0,0,56.91,48L55,37.63A13.39,13.39,0,0,0,41.83,26.55H36.52a13.41,13.41,0,0,0-13.18,11L21.45,47.85a11.2,11.2,0,0,0,.81,6.54l-1.68,4.25A1.52,1.52,0,0,0,22,60.73a1.54,1.54,0,0,0,.51-.1l4-1.48a10.68,10.68,0,0,0,5.68,1.58H46a10.62,10.62,0,0,0,5.67-1.58l4,1.48a1.84,1.84,0,0,0,.51.1A1.5,1.5,0,0,0,57.78,58.74Z"/><path class="cls-9" d="M23.34,37.58,21.45,47.91a11.21,11.21,0,0,0,.81,6.54l-1.68,4.24A1.52,1.52,0,0,0,22,60.78a1.54,1.54,0,0,0,.51-.1l.77-.31a1.47,1.47,0,0,1-.41-1.68l1.68-4.24a10.52,10.52,0,0,1-.81-6.54l1.89-10.33a13.37,13.37,0,0,1,13.18-11h-2.3A13.32,13.32,0,0,0,23.34,37.58Z"/><path class="cls-10" d="M55,37.58l1.89,10.33a11.21,11.21,0,0,1-.82,6.54l1.68,4.24a1.52,1.52,0,0,1-1.43,2.09,1.59,1.59,0,0,1-.51-.1l-.76-.31a1.49,1.49,0,0,0,.41-1.68l-1.69-4.24a10.52,10.52,0,0,0,.82-6.54L52.72,37.58a13.38,13.38,0,0,0-13.19-11h2.3A13.3,13.3,0,0,1,55,37.58Z"/><path class="cls-11" d="M39.18,36.41a9.78,9.78,0,0,1,3.81.76,10,10,0,0,1,5.39,5.39,10,10,0,0,1-2.16,10.86,10,10,0,0,1-10.86,2.16,10,10,0,0,1-6.15-9.21,10,10,0,0,1,2.92-7,10,10,0,0,1,7-2.92Z"/><g class="cls-12"><g class="cls-5"><g class="cls-13"><g class="cls-14"><g class="cls-5"><g class="cls-13"><polygon class="cls-15" points="36.55 41.17 43.38 41.17 53.31 53.28 51.08 57.44 46.46 60.59 39.69 53.5 35.34 45.64 36.55 44.22 35.24 43.08 40.03 42.17 36.55 41.17"/></g></g></g><text class="cls-16" transform="translate(35.01 52.31)">₹</text></g></g></g><path class="cls-8" d="M46.23,16.17a2,2,0,0,0-2.4-.61,12.44,12.44,0,0,1-4.65.82,13.37,13.37,0,0,1-4.65-.87,2.09,2.09,0,0,0-2.05.31,2.24,2.24,0,0,0-.51,2.7l3.22,6.54h8l3.22-6.48A2.27,2.27,0,0,0,46.23,16.17Z"/><path class="cls-9" d="M34.94,15.87c.05,0,.1-.1.15-.1-.21-.06-.41-.16-.56-.21a2.11,2.11,0,0,0-2.05.31A2.25,2.25,0,0,0,32,18.58l3.22,6.49h2.5l-3.27-6.49A2.23,2.23,0,0,1,34.94,15.87Z"/><path class="cls-10" d="M43.42,15.87c-.05,0-.1-.1-.16-.1.21-.06.41-.16.57-.21a2.09,2.09,0,0,1,2,.31,2.24,2.24,0,0,1,.51,2.71l-3.27,6.49h-2.5l3.27-6.49A2.16,2.16,0,0,0,43.42,15.87Z"/><path class="cls-17" d="M46.33,32.68l-2.45-5.83h.71a1.18,1.18,0,1,0,0-2.35H33.81a1.18,1.18,0,0,0,0,2.35h6.54l-2.09,3.53A1.17,1.17,0,0,0,38.67,32a1.24,1.24,0,0,0,.61.16,1.18,1.18,0,0,0,1-.56L42,28.69l2.09,5a1.17,1.17,0,0,0,1.08.72,1.62,1.62,0,0,0,.46-.11A1.17,1.17,0,0,0,46.33,32.68Z"/><polygon class="cls-18" points="43.88 26.85 40.35 26.85 44.75 28.95 43.88 26.85"/><circle class="cls-19" cx="40.7" cy="40.7" r="34.53" transform="translate(-5.99 74.36) rotate(-80.78)"/><g class="cls-20"><g class="cls-5"><g class="cls-21"><polygon class="cls-22" points="16.09 52.73 19.28 55.97 20.3 60.13 35.3 75.23 75.23 75.23 75.23 37.19 61.26 23.22 60.45 23.7 53.81 17.12 16.09 52.73"/></g></g></g><path class="cls-23" d="M66.71,36.76,30.29,65.68a2.15,2.15,0,0,1-3-.32L14.31,49a2.14,2.14,0,0,1,.33-3L51.06,17.07a2.13,2.13,0,0,1,3,.32l13,16.35A2.2,2.2,0,0,1,66.71,36.76Z"/><path class="cls-3" d="M66.44,46.74,22,60.34a2.18,2.18,0,0,1-2.7-1.46L13.18,39a2.18,2.18,0,0,1,1.46-2.69L59.1,22.68a2.19,2.19,0,0,1,2.7,1.45l6.1,20A2.16,2.16,0,0,1,66.44,46.74Z"/><path class="cls-24" d="M64,53.27H17.55a2.16,2.16,0,0,1-2.16-2.16V30.23a2.17,2.17,0,0,1,2.16-2.16H64.07a2.17,2.17,0,0,1,2.15,2.16V51.11A2.24,2.24,0,0,1,64,53.27Z"/><path class="cls-25" d="M64,53.27H17.55a2.16,2.16,0,0,1-2.16-2.16V30.23a2.17,2.17,0,0,1,2.16-2.16H64.07a2.17,2.17,0,0,1,2.15,2.16V51.11A2.24,2.24,0,0,1,64,53.27Z"/><g class="cls-26"><g class="cls-5"><g class="cls-27"><path class="cls-3" d="M59.37,51H22.19a7.2,7.2,0,0,0-4.58-4.59V34.93a7.05,7.05,0,0,0,4.58-4.64H59.26a7.16,7.16,0,0,0,4.59,4.64V46.42A7.42,7.42,0,0,0,59.37,51Zm7.34-4.91c-.16,0-.38-.06-.54-.06V35.25a2,2,0,0,0,.54,0V27.37H59.05c0,.22-.06.43-.06.65H22.57a2.85,2.85,0,0,0-.05-.65H13.77v7.72a8.17,8.17,0,0,0,1.62.21V46.1a5.64,5.64,0,0,0-1.62.21v7.45h8.8v-.49H59v.49h7.72Z"/></g></g></g><path class="cls-3" d="M40.54,31.69a8.93,8.93,0,0,1,3.45.69,9,9,0,0,1,4.87,4.87,9,9,0,0,1,0,6.9,8.7,8.7,0,0,1-2,2.92A8.88,8.88,0,0,1,44,49a9.09,9.09,0,0,1-6.9,0,9.11,9.11,0,0,1-4.88-4.88,9.09,9.09,0,0,1,0-6.9,8.88,8.88,0,0,1,2-2.92,8.7,8.7,0,0,1,2.92-1.95A8.85,8.85,0,0,1,40.54,31.69Z"/><path class="cls-3" d="M56.73,37.89a2.82,2.82,0,0,1,2.8,2.81,2.66,2.66,0,0,1-.82,2,2.79,2.79,0,0,1-4,0,2.8,2.8,0,0,1,0-4A2.71,2.71,0,0,1,56.73,37.89Z"/><path class="cls-3" d="M24.35,37.89a2.83,2.83,0,1,1-2,.83A2.67,2.67,0,0,1,24.35,37.89Z"/><g class="cls-28"><g class="cls-5"><g class="cls-29"><path class="cls-30" d="M41.39,47.72l1.52,2.47s2.27-.26,5-3.28,2-5.17,2-5.17l-5.35-6.23-1.13.55L40,37H37.16v5.27Z"/></g></g></g><path class="cls-31" d="M24.35,39.62a1.08,1.08,0,0,1,0,2.16,1.08,1.08,0,0,1,0-2.16Z"/><path class="cls-31" d="M56.73,39.62a1.08,1.08,0,1,1-1.08,1.08A1,1,0,0,1,56.73,39.62Z"/><text class="cls-32" transform="translate(36.43 46.62)">₹</text><circle class="cls-33" cx="40.7" cy="40.7" r="40.2"/></g></g></svg>