<svg xmlns="http://www.w3.org/2000/svg" xmlns:xlink="http://www.w3.org/1999/xlink" viewBox="0 0 81.4 81.4"><defs><style>.cls-1,.cls-18,.cls-2{fill:none;}.cls-1{clip-rule:evenodd;}.cls-3{fill:#0f4ace;}.cls-4{clip-path:url(#clip-path);}.cls-5{isolation:isolate;}.cls-6{clip-path:url(#clip-path-2);}.cls-7{fill:#061c44;opacity:0.4;}.cls-8{fill:#fff;}.cls-9{fill:#ffa700;}.cls-10{fill:#0fb908;}.cls-11{fill:#a0bec7;}.cls-12{fill:#5c5152;}.cls-13{clip-path:url(#clip-path-3);}.cls-14{clip-path:url(#clip-path-4);}.cls-15{fill:#ee5e29;}.cls-16{clip-path:url(#clip-path-5);}.cls-17{clip-path:url(#clip-path-6);}.cls-18{stroke:#e2e2e2;stroke-miterlimit:10;}</style><clipPath id="clip-path"><path class="cls-1" d="M40.7,7.33A33.37,33.37,0,0,0,9.87,53.47a33.37,33.37,0,0,0,43.6,18.06,33.37,33.37,0,0,0,18.06-43.6A33.37,33.37,0,0,0,40.7,7.33Z"/></clipPath><clipPath id="clip-path-2"><rect class="cls-2" x="5.86" y="6.24" width="69.67" height="69.67"/></clipPath><clipPath id="clip-path-3"><rect class="cls-2" x="25.26" y="33.66" width="12.38" height="6.42"/></clipPath><clipPath id="clip-path-4"><rect class="cls-2" x="25.22" y="33.34" width="13.55" height="7.74"/></clipPath><clipPath id="clip-path-5"><rect class="cls-2" x="22.97" y="31.36" width="16.97" height="8.26"/></clipPath><clipPath id="clip-path-6"><rect class="cls-2" x="21.35" y="29.47" width="19.35" height="11.61"/></clipPath></defs><g id="Layer_2" data-name="Layer 2"><g id="Layer_1-2" data-name="Layer 1"><circle class="cls-3" cx="40.7" cy="40.7" r="33.37" transform="translate(-3.81 4.21) rotate(-5.66)"/><g class="cls-4"><g class="cls-5"><g class="cls-6"><polygon class="cls-7" points="20.26 59.52 33.87 74.02 74.07 74.07 74.07 38.93 61.55 26.47 53.47 26.26 38.2 26.62 20.26 59.52"/></g></g></g><rect class="cls-8" x="18.8" y="25.06" width="43.79" height="35.45" rx="4.17"/><path class="cls-9" d="M56.55,35h-15a.76.76,0,0,1-.84-.7v-.09a.75.75,0,0,1,.84-.69h15a.74.74,0,0,1,.83.69v.09A.75.75,0,0,1,56.55,35Z"/><path class="cls-10" d="M56.55,40.07h-15a.75.75,0,0,1-.84-.68V39.3a.75.75,0,0,1,.84-.68h15a.74.74,0,0,1,.83.68v.09A.78.78,0,0,1,56.55,40.07Z"/><rect class="cls-11" x="42.79" y="45.78" width="14.6" height="1.56" rx="0.73"/><rect class="cls-11" x="42.79" y="50.89" width="14.6" height="1.56" rx="0.73"/><path class="cls-12" d="M34.76,51.24a4.28,4.28,0,0,0-1.83-.68L32.41,50a2.71,2.71,0,0,0,.94-1.51,2.72,2.72,0,0,0,.36-1.3,2.5,2.5,0,0,0-2.45-2.56,2.54,2.54,0,0,0-2.45,2.56,2.73,2.73,0,0,0,.37,1.3A2.71,2.71,0,0,0,30.12,50l-.52.52a4.9,4.9,0,0,0-1.83.68,2,2,0,0,0-.89,1.67c0,.42.47.26.47.26h7.82s.47.16.47-.26A1.91,1.91,0,0,0,34.76,51.24Z"/><g class="cls-13"><g class="cls-5"><g class="cls-14"><path class="cls-15" d="M31.68,35.4a4.23,4.23,0,1,1-3,1.24A4.06,4.06,0,0,1,31.68,35.4Z"/></g></g></g><g class="cls-16"><g class="cls-5"><g class="cls-17"><path class="cls-15" d="M25.31,36.49a.38.38,0,0,1,.31-.58L27,35.84a.38.38,0,0,1,.36.56l-.65,1.23a.39.39,0,0,1-.68,0Z"/><path class="cls-15" d="M27.7,33.84a.39.39,0,0,1,.57-.34l1.18.66a.39.39,0,0,1,0,.67l-1.2.69a.39.39,0,0,1-.58-.34Z"/><path class="cls-15" d="M31.15,32.68a.38.38,0,0,1,.66,0l.72,1.14a.38.38,0,0,1-.32.59l-1.39,0a.39.39,0,0,1-.34-.58Z"/><path class="cls-15" d="M37.47,35.91a.38.38,0,0,1,.31.58l-.69,1.15a.39.39,0,0,1-.67,0l-.65-1.23a.38.38,0,0,1,.36-.56Z"/><path class="cls-15" d="M38.61,39.36a.38.38,0,0,1,0,.66l-1.15.69a.39.39,0,0,1-.59-.33V39a.39.39,0,0,1,.59-.34Z"/><path class="cls-15" d="M34.82,33.5a.38.38,0,0,1,.57.34l0,1.34a.39.39,0,0,1-.58.34l-1.2-.69a.39.39,0,0,1,0-.67Z"/><path class="cls-15" d="M24.59,40a.38.38,0,0,1,0-.66l1.15-.7a.39.39,0,0,1,.59.34v1.38a.39.39,0,0,1-.59.33Z"/></g></g></g><circle class="cls-18" cx="40.7" cy="40.7" r="40.2"/></g></g></svg>