<?xml version="1.0" encoding="utf-8"?>
<!-- Generator: Adobe Illustrator 25.4.1, SVG Export Plug-In . SVG Version: 6.00 Build 0)  -->
<svg version="1.1" id="Layer_1" xmlns:xodm="http://www.corel.com/coreldraw/odm/2003"
	 xmlns="http://www.w3.org/2000/svg" xmlns:xlink="http://www.w3.org/1999/xlink" x="0px" y="0px" viewBox="0 0 50 50"
	 style="enable-background:new 0 0 50 50;" xml:space="preserve">
<style type="text/css">
	.st0{fill:#020202;stroke:#000000;stroke-width:1.5;stroke-miterlimit:10;}
	.st1{fill:#0075FF;stroke:#0075FF;stroke-width:1.5;stroke-miterlimit:10;}
	.st2{fill:#1475FF;}
	.st3{fill:#1475FF;fill-opacity:0;}
</style>
<g id="Layer_x0020_1">
	<g id="_811414592">
		<path class="st0" d="M84.1,29.8L82,27.7l1.3-1.3l-0.7-0.6L81,27.4c-0.1,0.1-0.1,0.1-0.1,0.2c-2.4,2.4-7.6,6.3-10.6,8.3
			c-1.4,1-1.9,3.2-1.6,4.7c0,0.1,0.1,0.2,0.1,0.3l1.1,1.1l1.1,1.1c0.1,0.1,0.2,0.1,0.3,0.1c0.4,0.1,0.6,0.1,0.9,0.1
			c1.4,0,3.1-0.5,3.8-1.7c1.7-2.8,5.7-8,8.2-10.5c0.1,0,0.2-0.1,0.2-0.1l1.5-1.5l-0.6-0.6L84.1,29.8L84.1,29.8z M75.1,41
			c-0.5,0.8-1.9,1.4-3.6,1.3l-0.9-0.9l-0.9-0.9c-0.2-1.4,0.2-3,1.3-3.7c2.9-1.9,8-5.8,10.5-8.2l2,2C81,32.9,77,37.9,75.1,41z"/>
		<path class="st1" d="M85.8,29.6c0,0,0.1,0.1,0.2,0.1s0.1,0,0.2,0l0,0l5.7-0.2c0.1,0,0.2-0.1,0.3-0.2l11.5-11.5
			c0.1-0.1,0.2-0.2,0.2-0.4c0-0.1-0.1-0.3-0.2-0.4L94.5,8c-0.1-0.1-0.2-0.1-0.4-0.1c-0.1,0-0.3,0-0.4,0.1L82.3,19.6
			c-0.1,0.1-0.2,0.2-0.2,0.3L82,25.6c0,0.1,0,0.1,0,0.2s0.1,0.1,0.1,0.2C82.1,25.9,85.8,29.6,85.8,29.6z M82.9,25.5l0.1-4.5l7.8,7.8
			l-4.5,0.1C86.3,28.8,82.9,25.5,82.9,25.5z M83.3,19.9l2.6-2.6l8.6,8.6l-2.6,2.6L83.3,19.9z M94.1,9l1.8,1.8l-4.7,4.7
			c0,0-0.1,0.1-0.1,0.2c0,0.1,0,0.1,0,0.2s0,0.1,0,0.2c0,0.1,0.1,0.1,0.1,0.2c0,0,0.1,0.1,0.2,0.1s0.1,0,0.2,0c0.1,0,0.1,0,0.2,0
			s0.1-0.1,0.2-0.1l4.7-4.7l1.5,1.5l-3.4,3.4c0,0-0.1,0.1-0.1,0.2s0,0.1,0,0.2s0,0.1,0,0.2s0.1,0.1,0.1,0.2c0,0,0.1,0.1,0.2,0.1
			s0.1,0,0.2,0s0.1,0,0.2,0s0.1-0.1,0.2-0.1l3.4-3.4l1.5,1.5L95.8,20c-0.1,0.1-0.1,0.2-0.1,0.4c0,0.1,0,0.3,0.2,0.4
			c0.1,0.1,0.2,0.2,0.4,0.2c0.1,0,0.3,0,0.4-0.1l4.7-4.7l1.8,1.8l-7.9,7.2l-8.7-8.6L94.1,9z"/>
	</g>
</g>
<g id="check" transform="translate(407 10)">
	<ellipse id="Ellipse_5" class="st2" cx="-533.1" cy="48.8" rx="27.5" ry="27.5"/>
</g>
<g>
	<g id="light_services_small-2" transform="translate(42 397)">
		<g id="icon-3" transform="translate(-33 -428)">
			<g id="qr_scan" transform="translate(-574 328)">
				<rect id="container-2" x="571.4" y="-289.5" class="st3" width="34.8" height="34.8"/>
				<path id="icon-4" class="st2" d="M596.5-260.3h-15.3c-0.5,0-0.9-0.1-1.4-0.2c-1.2-0.4-2.1-1.4-2.5-2.5c-0.2-0.4-0.2-0.9-0.2-1.4
					v-4.2h2.8v4.2c0,0.8,0.6,1.4,1.4,1.4h15.3c0.8,0,1.4-0.6,1.4-1.4v-4.2h2.8v4.2c0,0.5-0.1,0.9-0.2,1.4c-0.4,1.2-1.4,2.1-2.5,2.5
					C597.5-260.4,597-260.3,596.5-260.3L596.5-260.3z M574.9-271.4v-2.8h2.1v-5.6c0-0.5,0.1-0.9,0.2-1.4c0.4-1.2,1.4-2.1,2.5-2.5
					c0.4-0.2,0.9-0.2,1.4-0.2h15.3c0.5,0,0.9,0.1,1.4,0.2c1.2,0.4,2.1,1.4,2.5,2.5c0.2,0.4,0.2,0.9,0.2,1.4v5.6h2.1v2.8L574.9-271.4
					z M579.8-279.8v5.6h18.1v-5.6c0-0.8-0.6-1.4-1.4-1.4h-15.3C580.4-281.2,579.8-280.6,579.8-279.8z"/>
			</g>
		</g>
	</g>
	<path d="M33.3,42.1v-2.8h4.2c0.8,0,1.4-0.6,1.4-1.4v-4.2h2.8V38c0,2.3-1.9,4.2-4.2,4.2l0,0H33.3z"/>
	<path d="M11,42.1c-2.3,0-4.2-1.9-4.2-4.2c0,0,0,0,0,0v-4.2h2.8V38c0,0.8,0.6,1.4,1.4,1.4h4.2v2.8H11z"/>
	<path d="M38.9,15.7v-4.2c0-0.8-0.6-1.4-1.4-1.4h-4.2V7.3h4.2c2.3,0,4.2,1.9,4.2,4.2v4.2H38.9z"/>
	<path d="M6.8,15.7v-4.2c0-2.3,1.9-4.2,4.2-4.2c0,0,0,0,0,0h4.2v2.8H11c-0.8,0-1.4,0.6-1.4,1.4v4.2H6.8z"/>
</g>
</svg>
